<mxfile host="app.diagrams.net" modified="2021-03-23T17:42:06.763Z" agent="5.0 (Windows NT 10.0; Win64; x64) AppleWebKit/537.36 (KHTML, like Gecko) Chrome/89.0.4389.90 Safari/537.36" etag="t0mtskhsp386iNsNJUh8" version="14.5.0" type="github">
  <diagram id="mnvOXZ7K0his2o-u_DJA" name="Page-1">
    <mxGraphModel dx="462" dy="761" grid="1" gridSize="10" guides="1" tooltips="1" connect="1" arrows="1" fold="1" page="1" pageScale="1" pageWidth="827" pageHeight="1169" math="0" shadow="0">
      <root>
        <mxCell id="0" />
        <mxCell id="1" parent="0" />
        <mxCell id="9tzp5LFWy6l0zSrWXWCf-7" value="" style="edgeStyle=orthogonalEdgeStyle;rounded=0;orthogonalLoop=1;jettySize=auto;html=1;" edge="1" parent="1" source="9tzp5LFWy6l0zSrWXWCf-1" target="9tzp5LFWy6l0zSrWXWCf-5">
          <mxGeometry relative="1" as="geometry" />
        </mxCell>
        <mxCell id="9tzp5LFWy6l0zSrWXWCf-8" value="Builder" style="edgeLabel;html=1;align=center;verticalAlign=middle;resizable=0;points=[];" vertex="1" connectable="0" parent="9tzp5LFWy6l0zSrWXWCf-7">
          <mxGeometry x="-0.7778" relative="1" as="geometry">
            <mxPoint as="offset" />
          </mxGeometry>
        </mxCell>
        <mxCell id="9tzp5LFWy6l0zSrWXWCf-1" value="Fábrica" style="swimlane;childLayout=stackLayout;horizontal=1;startSize=30;horizontalStack=0;rounded=1;fontSize=14;fontStyle=0;strokeWidth=2;resizeParent=0;resizeLast=1;shadow=0;dashed=0;align=center;" vertex="1" parent="1">
          <mxGeometry x="60" y="70" width="160" height="120" as="geometry" />
        </mxCell>
        <mxCell id="9tzp5LFWy6l0zSrWXWCf-2" value="produzir()" style="align=left;strokeColor=none;fillColor=none;spacingLeft=4;fontSize=12;verticalAlign=top;resizable=0;rotatable=0;part=1;" vertex="1" parent="9tzp5LFWy6l0zSrWXWCf-1">
          <mxGeometry y="30" width="160" height="90" as="geometry" />
        </mxCell>
        <mxCell id="9tzp5LFWy6l0zSrWXWCf-3" value="Padrão Builder" style="text;html=1;align=center;verticalAlign=middle;resizable=0;points=[];autosize=1;" vertex="1" parent="1">
          <mxGeometry x="275" y="20" width="90" height="20" as="geometry" />
        </mxCell>
        <mxCell id="9tzp5LFWy6l0zSrWXWCf-13" value="" style="edgeStyle=orthogonalEdgeStyle;rounded=0;orthogonalLoop=1;jettySize=auto;html=1;startArrow=classic;startFill=1;endArrow=none;endFill=0;" edge="1" parent="1" source="9tzp5LFWy6l0zSrWXWCf-5" target="9tzp5LFWy6l0zSrWXWCf-11">
          <mxGeometry relative="1" as="geometry" />
        </mxCell>
        <mxCell id="9tzp5LFWy6l0zSrWXWCf-5" value="PCBuilder()" style="swimlane;childLayout=stackLayout;horizontal=1;startSize=30;horizontalStack=0;rounded=1;fontSize=14;fontStyle=0;strokeWidth=2;resizeParent=0;resizeLast=1;shadow=0;dashed=0;align=center;" vertex="1" parent="1">
          <mxGeometry x="580" y="70" width="160" height="120" as="geometry" />
        </mxCell>
        <mxCell id="9tzp5LFWy6l0zSrWXWCf-6" value="construir()&#xa;inserirMonitor()" style="align=left;strokeColor=none;fillColor=none;spacingLeft=4;fontSize=12;verticalAlign=top;resizable=0;rotatable=0;part=1;" vertex="1" parent="9tzp5LFWy6l0zSrWXWCf-5">
          <mxGeometry y="30" width="160" height="90" as="geometry" />
        </mxCell>
        <mxCell id="9tzp5LFWy6l0zSrWXWCf-11" value="ServerBuilder" style="swimlane;childLayout=stackLayout;horizontal=1;startSize=30;horizontalStack=0;rounded=1;fontSize=14;fontStyle=0;strokeWidth=2;resizeParent=0;resizeLast=1;shadow=0;dashed=0;align=center;" vertex="1" parent="1">
          <mxGeometry x="580" y="260" width="160" height="120" as="geometry" />
        </mxCell>
        <mxCell id="9tzp5LFWy6l0zSrWXWCf-12" value="construir()&#xa;inserirMonitor()" style="align=left;strokeColor=none;fillColor=none;spacingLeft=4;fontSize=12;verticalAlign=top;resizable=0;rotatable=0;part=1;" vertex="1" parent="9tzp5LFWy6l0zSrWXWCf-11">
          <mxGeometry y="30" width="160" height="90" as="geometry" />
        </mxCell>
        <mxCell id="9tzp5LFWy6l0zSrWXWCf-14" value="builders" style="text;html=1;align=center;verticalAlign=middle;resizable=0;points=[];autosize=1;" vertex="1" parent="1">
          <mxGeometry x="530" y="200" width="60" height="20" as="geometry" />
        </mxCell>
        <mxCell id="9tzp5LFWy6l0zSrWXWCf-19" value="" style="edgeStyle=orthogonalEdgeStyle;rounded=0;orthogonalLoop=1;jettySize=auto;html=1;startArrow=classic;startFill=1;endArrow=none;endFill=0;" edge="1" parent="1" source="9tzp5LFWy6l0zSrWXWCf-15" target="9tzp5LFWy6l0zSrWXWCf-17">
          <mxGeometry relative="1" as="geometry" />
        </mxCell>
        <mxCell id="9tzp5LFWy6l0zSrWXWCf-15" value="Computer" style="swimlane;childLayout=stackLayout;horizontal=1;startSize=30;horizontalStack=0;rounded=1;fontSize=14;fontStyle=0;strokeWidth=2;resizeParent=0;resizeLast=1;shadow=0;dashed=0;align=center;" vertex="1" parent="1">
          <mxGeometry x="60" y="260" width="160" height="120" as="geometry" />
        </mxCell>
        <mxCell id="9tzp5LFWy6l0zSrWXWCf-16" value="modelo&#xa;ram&#xa;cpu&#xa;hd" style="align=left;strokeColor=none;fillColor=none;spacingLeft=4;fontSize=12;verticalAlign=top;resizable=0;rotatable=0;part=1;" vertex="1" parent="9tzp5LFWy6l0zSrWXWCf-15">
          <mxGeometry y="30" width="160" height="90" as="geometry" />
        </mxCell>
        <mxCell id="9tzp5LFWy6l0zSrWXWCf-17" value="DesktopBuilder" style="swimlane;childLayout=stackLayout;horizontal=1;startSize=30;horizontalStack=0;rounded=1;fontSize=14;fontStyle=0;strokeWidth=2;resizeParent=0;resizeLast=1;shadow=0;dashed=0;align=center;" vertex="1" parent="1">
          <mxGeometry x="300" y="260" width="160" height="120" as="geometry" />
        </mxCell>
        <mxCell id="9tzp5LFWy6l0zSrWXWCf-18" value="construir" style="align=left;strokeColor=none;fillColor=none;spacingLeft=4;fontSize=12;verticalAlign=top;resizable=0;rotatable=0;part=1;" vertex="1" parent="9tzp5LFWy6l0zSrWXWCf-17">
          <mxGeometry y="30" width="160" height="90" as="geometry" />
        </mxCell>
        <mxCell id="9tzp5LFWy6l0zSrWXWCf-24" value="Desktop" style="whiteSpace=wrap;html=1;rounded=1;shadow=0;dashed=0;fontSize=14;fontStyle=0;strokeWidth=2;startSize=30;" vertex="1" parent="1">
          <mxGeometry x="320" y="490" width="120" height="30" as="geometry" />
        </mxCell>
        <mxCell id="9tzp5LFWy6l0zSrWXWCf-26" value="Monitor" style="whiteSpace=wrap;html=1;rounded=1;shadow=0;dashed=0;fontSize=14;fontStyle=0;strokeWidth=2;startSize=30;" vertex="1" parent="1">
          <mxGeometry x="80" y="490" width="120" height="30" as="geometry" />
        </mxCell>
        <mxCell id="9tzp5LFWy6l0zSrWXWCf-27" value="Server" style="whiteSpace=wrap;html=1;rounded=1;shadow=0;dashed=0;fontSize=14;fontStyle=0;strokeWidth=2;startSize=30;" vertex="1" parent="1">
          <mxGeometry x="600" y="490" width="120" height="30" as="geometry" />
        </mxCell>
        <mxCell id="9tzp5LFWy6l0zSrWXWCf-28" style="edgeStyle=orthogonalEdgeStyle;rounded=0;orthogonalLoop=1;jettySize=auto;html=1;exitX=0.5;exitY=1;exitDx=0;exitDy=0;entryX=0.5;entryY=0;entryDx=0;entryDy=0;startArrow=none;startFill=0;endArrow=classic;endFill=1;" edge="1" parent="1" source="9tzp5LFWy6l0zSrWXWCf-18" target="9tzp5LFWy6l0zSrWXWCf-24">
          <mxGeometry relative="1" as="geometry" />
        </mxCell>
        <mxCell id="9tzp5LFWy6l0zSrWXWCf-29" style="edgeStyle=orthogonalEdgeStyle;rounded=0;orthogonalLoop=1;jettySize=auto;html=1;exitX=0.5;exitY=1;exitDx=0;exitDy=0;entryX=0.5;entryY=0;entryDx=0;entryDy=0;startArrow=none;startFill=0;endArrow=classic;endFill=1;" edge="1" parent="1" source="9tzp5LFWy6l0zSrWXWCf-12" target="9tzp5LFWy6l0zSrWXWCf-27">
          <mxGeometry relative="1" as="geometry" />
        </mxCell>
      </root>
    </mxGraphModel>
  </diagram>
</mxfile>
